<svg version="1.1" viewBox="0 0 464.2 479.48" xmlns="http://www.w3.org/2000/svg">
 <path d="m266.95 353.9c-49.357-0.459-124.57 5.338-163.12 11.986-38.552 6.648-82.807 21.2-82.8 31.334 0 20.5 59.613 23.472 70.772 30.185 7.452 3.884-23.805 5.294-22.448 14.844 4.956 23.747 250.53 20.529 265.41 11.961 11.935-5.838-4.013-8.322-3.1-10.243 6.015-5.631 120.88 8.517 122.5-24.688 1.193-21.754-28.94-30.681-43.7-36.139-9.623-1.252-1.813-8.48-7.027-12.275-13.073-9.483-87.126-16.506-136.48-16.965" fill="#c3e2e5" data-name="Caminho 11704"/>
 <g fill="#fff">
  <path d="m91.8 427.4c-10.122-6.089-60.107-9.1-69.311-24.907a10.742 10.742 0 0 1-1.46-5.2l7e-3 9.1c0 16.906 40.335 21.625 60.807 26.619 7.108-2.213 13.871-3.571 9.957-5.61" data-name="Caminho 11705"/>
  <path d="m331.66 443.96c-0.756 1.6 10.169 3.589 6.96 7.58 26.334-1.462 114.15 5.607 115.56-23.359l5e-3 -10.287a22.877 22.877 0 0 1-0.632 4.767c-9.12 28.824-116.1 15.868-121.9 21.3" data-name="Caminho 11706"/>
  <path d="m72.25 445.91c-3.012-2.337-2.94-4.187-2.94-4.187l0.018 9.437c4.956 23.746 250.34 20.529 265.23 11.961 3.5-1.715 4.633-3.369 4.633-4.648l0.02-8.552s0.179 2.226-5.535 4.766c-21.654 7.746-233.74 10.551-261.42-8.777" data-name="Caminho 11707"/>
 </g>
 <path d="m388.42 403.47c0 15.939-64.472 28.862-144 28.862s-144-12.923-144-28.862 64.471-28.861 144-28.861 144 12.923 144 28.861" fill="#e6e6e6" style="isolation:isolate;mix-blend-mode:multiply" data-name="Caminho 11708"/>
 <path d="m190.02 305.54c-8.112-6.681-15.746-12.884-23.381-19.563-18.874-17.588-34.659-37.491-45.283-60.4-0.317 3.624-0.49 7.183-0.524 10.639 0 0 0.19 105.82 0 140.89s36.232 34.363 36.232 34.363 147.63-0.173 181.35 0.071 29.107-27.991 29.107-27.991c-25.033-16.836-53.663-27.959-82.071-38.409-32.447-12.406-66.8-17.177-95.432-39.6" fill="#f2f5f6" data-name="Caminho 11709"/>
 <path d="m345.6 163.37a17.822 17.822 0 1 0-25.381-24.538 97.621 97.621 0 0 1 25.381 24.538" fill="#f2f2f2" data-name="Caminho 11710"/>
 <path d="m168.89 139.03a17.823 17.823 0 1 0-25.361 24.468 100.38 100.38 0 0 1 25.361-24.468" fill="#f2f2f2" data-name="Caminho 11711"/>
 <path d="m345.89 163.37a98.261 98.261 0 0 0-25.526-24.538c-18.394-12.244-43.246-19.97-76.116-19.97-32.424 0-57.007 7.87-75.321 20.168a100.46 100.46 0 0 0-25.379 24.468c-13.887 19.1-20.4 41.665-22.185 62.077 10.624 22.908 26.405 42.811 45.28 60.4 7.634 6.679 15.266 12.882 23.378 19.563 28.629 22.426 63.272 27.2 95.72 39.6 28.408 10.449 57.358 21.572 82.358 38.408v-147.33c-1-23.956-6.438-50.849-22.209-72.843" fill="#fff" data-name="Caminho 11712"/>
 <path d="m121.1 264.86v-31.28s-50.663 49.832-41.046 68.605c18.857-2.639 32.046-19.979 41.046-37.325" fill="#f2f2f2" data-name="Caminho 11713"/>
 <path d="m79.918 302.18a10.415 10.415 0 0 0 0.665 1.024c12.135 17.914 40.516-16.469 40.516-16.469v-21.88c-9 17.346-22.323 34.685-41.181 37.325" fill="#e6e6e6" data-name="Caminho 11714"/>
 <path d="m368.1 255.87v28.281s25.412 30.853 38.4 18.868c-18.579-7.411-28.4-29.3-38.4-47.149" fill="#e6e6e6" data-name="Caminho 11715"/>
 <path d="m408.26 300.62c12.135-17.913-40.16-69.631-40.16-69.631v24.879c10 17.852 19.68 39.738 38.26 47.149a13.3 13.3 0 0 0 1.9-2.4" fill="#f2f2f2" data-name="Caminho 11716"/>
 <path d="m273.09 228.97c0 16.514-10.684 29.9-23.863 29.9s-23.863-13.387-23.863-29.9 10.684-29.9 23.863-29.9 23.863 13.387 23.863 29.9" fill="#bdccd4" data-name="Caminho 11717"/>
 <g fill="#4d4d4d">
  <path d="m305.29 179.67a7.331 7.331 0 1 1-7.331-7.331 7.331 7.331 0 0 1 7.331 7.331" data-name="Caminho 11718"/>
  <path d="m203.52 179.67a7.331 7.331 0 1 1-7.331-7.331 7.331 7.331 0 0 1 7.331 7.331" data-name="Caminho 11719"/>
  <path d="m241.07 241.44a0.954 0.954 0 0 1-0.714-1.588l9.323-10.5 9.9 10.479a0.95429 0.95429 0 0 1-1.388 1.31l-8.467-8.964-7.939 8.943a0.954 0.954 0 0 1-0.714 0.32" data-name="Caminho 11720"/>
  <path d="m236.89 219.17c-2.315-3.19-0.409-5.814 4.236-5.829s12.248-0.042 16.894-0.058 6.54 2.6 4.21 5.8l-8.472 11.661c-2.331 3.206-6.131 3.22-8.447 0.029s-6.1-8.413-8.421-11.6" data-name="Caminho 11721"/>
 </g>
 <path d="m178.61 390.34a30.775 30.775 0 1 1-30.775-30.775 30.774 30.774 0 0 1 30.775 30.775" fill="#ccc" data-name="Caminho 11722"/>
 <g fill="#fff">
  <path d="m130.55 389.63a5.606 5.606 0 1 1-5.606-5.607 5.605 5.605 0 0 1 5.606 5.607" data-name="Caminho 11723"/>
  <path d="m165.86 401.09a16.582 16.582 0 1 1-16.581-16.581 16.581 16.581 0 0 1 16.581 16.581" data-name="Caminho 11724"/>
  <path d="m138.19 379.14a5.606 5.606 0 1 1-5.606-5.606 5.606 5.606 0 0 1 5.606 5.606" data-name="Caminho 11725"/>
  <path d="m148.69 373.41a5.607 5.607 0 1 1-5.607-5.606 5.607 5.607 0 0 1 5.607 5.606" data-name="Caminho 11726"/>
  <path d="m160.62 371.98a5.607 5.607 0 1 1-5.606-5.607 5.606 5.606 0 0 1 5.606 5.607" data-name="Caminho 11727"/>
  <path d="m170.16 379.14a5.606 5.606 0 1 1-5.607-5.606 5.607 5.607 0 0 1 5.607 5.606" data-name="Caminho 11728"/>
 </g>
 <path d="m308.4 395.11a30.775 30.775 0 1 0 30.775-30.775 30.775 30.775 0 0 0-30.775 30.775" fill="#ccc" data-name="Caminho 11729"/>
 <g fill="#fff">
  <path d="m356.46 394.41a5.607 5.607 0 1 0 5.607-5.607 5.607 5.607 0 0 0-5.607 5.607" data-name="Caminho 11730"/>
  <path d="m321.15 405.86a16.581 16.581 0 1 0 16.582-16.581 16.582 16.582 0 0 0-16.582 16.581" data-name="Caminho 11731"/>
  <path d="m348.83 383.91a5.607 5.607 0 1 0 5.607-5.607 5.607 5.607 0 0 0-5.607 5.607" data-name="Caminho 11732"/>
  <path d="m338.33 378.18a5.607 5.607 0 1 0 5.607-5.606 5.607 5.607 0 0 0-5.607 5.606" data-name="Caminho 11733"/>
  <path d="m326.4 376.75a5.607 5.607 0 1 0 5.605-5.607 5.606 5.606 0 0 0-5.605 5.607" data-name="Caminho 11734"/>
  <path d="m316.86 383.91a5.607 5.607 0 1 0 5.607-5.607 5.607 5.607 0 0 0-5.607 5.607" data-name="Caminho 11735"/>
  <path d="m23.508 225.36 12.943 10.318c1.816 3.58 0.259 8.562-0.622 10.124s-3.286 4.257-9.6 6.606c-1.86-1.507-13.621-11.38-13.621-11.38a2.054 2.054 0 0 0-2.458 1.632c-1.2 5.473 5.02 17.748 10.666 21.511 5.524 3.68 12.866 0.281 19.559 6.326l36.468 48.663c4.9 7.192-1.438 16 4.4 23.233s19.438 7.89 22.943 7.254a1.648 1.648 0 0 0 1.172-1.891l-12.024-9.586c-1.687-3.324-0.241-7.951 0.576-9.4s3.056-3.954 8.912-6.136c1.73 1.4 12.657 10.572 12.657 10.572 0.4 0.307 1.989-0.142 2.286-1.514 1.115-5.086-4.639-16.507-9.884-20-5.045-3.36-11.724-0.366-17.828-5.616l-36.853-49.186c-4.683-6.9 2.576-17.992-3.709-25.774s-20.936-8.487-24.709-7.8a1.71 1.71 0 0 0-1.275 2.046" data-name="Caminho 11736"/>
 </g>
 <path d="m349.2 213.33a5.7175 5.7175 0 1 1-11.435 0c0-3.157 5.717-11.773 5.717-11.773s5.718 8.616 5.718 11.773" fill="#d9eefd" data-name="Caminho 11737"/>
 <path d="m362.37 245.74a9.8 9.8 0 1 1-19.6 0c0-5.412 9.8-20.181 9.8-20.181s9.8 14.769 9.8 20.181" fill="#d9eefd" data-name="Caminho 11738"/>
 <text id="Em_mãenutenção_" x="96.599083" y="36.861328" fill="#14112d" font-family="Lato-Bold, Lato" font-size="34px" font-weight="700" data-name="Em mãenutenção!"><tspan x="96.599083" y="36.861328">Em mãenutenção!</tspan></text>
 <text id="Alguma_coisa_de_errada_não_está_certa" x="91.599083" y="64.861328" fill="#959cae" font-family="Lato-Regular, Lato" font-size="17px" data-name="Alguma coisa de errada não está certa"><tspan x="91.599083" y="64.861328">Alguma coisa de errada não está certa</tspan></text>
</svg>
